<svg width="40" height="40" viewBox="0 0 40 40" fill="none" xmlns="http://www.w3.org/2000/svg">
<g clip-path="url(#clip0_8_22)">
<path d="M15 31.6667C7.83333 34 7.83333 27.5 5 26.6667M25 35V29.1667C25 27.5 25.1667 26.8333 24.1667 25.8333C28.8333 25.3333 33.3333 23.5 33.3333 15.8333C33.3313 13.8416 32.5542 11.9288 31.1667 10.5C31.8174 8.76994 31.7575 6.85271 31 5.16667C31 5.16667 29.1667 4.66667 25.1667 7.33333C21.7787 6.45098 18.2213 6.45098 14.8333 7.33333C10.8333 4.66667 9 5.16667 9 5.16667C8.24247 6.85271 8.18256 8.76994 8.83333 10.5C7.44575 11.9288 6.6687 13.8416 6.66667 15.8333C6.66667 23.5 11.1667 25.3333 15.8333 25.8333C14.8333 26.8333 14.8333 27.8333 15 29.1667V35" stroke="#0A192F" stroke-width="3.33333" stroke-linecap="round" stroke-linejoin="round"/>
</g>
<defs>
<clipPath id="clip0_8_22">
<rect width="40" height="40" fill="white"/>
</clipPath>
</defs>
</svg>



