<svg width="40" height="40" viewBox="0 0 40 40" fill="none" xmlns="http://www.w3.org/2000/svg">
<g clip-path="url(#clip0_8_25)">
<path d="M30 6.66666H10C8.15907 6.66666 6.66669 8.15905 6.66669 10V30C6.66669 31.8409 8.15907 33.3333 10 33.3333H30C31.841 33.3333 33.3334 31.8409 33.3334 30V10C33.3334 8.15905 31.841 6.66666 30 6.66666Z" stroke="#0A192F" stroke-width="3.33333" stroke-linecap="round" stroke-linejoin="round"/>
<path d="M13.3333 18.3333V26.6667" stroke="#0A192F" stroke-width="3.33333" stroke-linecap="round" stroke-linejoin="round"/>
<path d="M13.3333 13.3333V13.35" stroke="#0A192F" stroke-width="3.33333" stroke-linecap="round" stroke-linejoin="round"/>
<path d="M20 26.6667V18.3333" stroke="#0A192F" stroke-width="3.33333" stroke-linecap="round" stroke-linejoin="round"/>
<path d="M26.6667 26.6667V21.6667C26.6667 20.7826 26.3155 19.9348 25.6904 19.3096C25.0652 18.6845 24.2174 18.3333 23.3333 18.3333C22.4493 18.3333 21.6014 18.6845 20.9763 19.3096C20.3512 19.9348 20 20.7826 20 21.6667" stroke="#0A192F" stroke-width="3.33333" stroke-linecap="round" stroke-linejoin="round"/>
</g>
<defs>
<clipPath id="clip0_8_25">
<rect width="40" height="40" fill="white"/>
</clipPath>
</defs>
</svg>




