<svg width="40" height="40" viewBox="0 0 40 40" fill="none" xmlns="http://www.w3.org/2000/svg">
<g clip-path="url(#clip0_8_14)">
<path d="M36.6666 6.68333C35 7.49999 33.3666 7.83166 31.6666 8.33333C29.7983 6.22499 27.0283 6.10833 24.3666 7.10499C21.705 8.10166 19.9616 10.5383 20 13.3333V15C14.5916 15.1383 9.77498 12.675 6.66665 8.33333C6.66665 8.33333 -0.303354 20.7217 13.3333 26.6667C10.2133 28.745 7.10165 30.1467 3.33331 30C8.84665 33.005 14.855 34.0383 20.0566 32.5283C26.0233 30.795 30.9266 26.3233 32.8083 19.625C33.3696 17.5878 33.6483 15.4831 33.6366 13.37C33.6333 12.955 36.1533 8.74999 36.6666 6.68166V6.68333Z" stroke="#0A192F" stroke-width="2.66667" stroke-linecap="round" stroke-linejoin="round"/>
</g>
<defs>
<clipPath id="clip0_8_14">
<rect width="40" height="40" fill="white"/>
</clipPath>
</defs>
</svg>

