<svg xmlns="http://www.w3.org/2000/svg" xmlns:xlink="http://www.w3.org/1999/xlink" width="500" zoomAndPan="magnify" viewBox="0 0 375 374.999991" height="500" preserveAspectRatio="xMidYMid meet" version="1.0"><defs><g/></defs><rect x="-37.5" width="450" fill="#ffffff" y="-37.499999" height="449.999989" fill-opacity="1"/><rect x="-37.5" width="450" fill="#ffffff" y="-37.499999" height="449.999989" fill-opacity="1"/><rect x="-37.5" width="450" fill="#0a192f" y="-37.499999" height="449.999989" fill-opacity="1"/><g fill="#64ffda" fill-opacity="1"><g transform="translate(-0.712528, 325.054894)"><g><path d="M 132.40625 -105.484375 L 85.09375 -105.484375 L 85.09375 0 L 25.734375 0 L 25.734375 -288.15625 L 132.796875 -288.15625 C 166.835938 -288.15625 193.09375 -280.566406 211.5625 -265.390625 C 230.03125 -250.222656 239.265625 -228.785156 239.265625 -201.078125 C 239.265625 -181.410156 235.007812 -165.015625 226.5 -151.890625 C 217.988281 -138.765625 205.09375 -128.3125 187.8125 -120.53125 L 250.15625 -2.765625 L 250.15625 0 L 186.421875 0 Z M 85.09375 -153.578125 L 133 -153.578125 C 147.90625 -153.578125 159.445312 -157.367188 167.625 -164.953125 C 175.800781 -172.535156 179.890625 -182.992188 179.890625 -196.328125 C 179.890625 -209.910156 176.03125 -220.59375 168.3125 -228.375 C 160.59375 -236.164062 148.753906 -240.0625 132.796875 -240.0625 L 85.09375 -240.0625 Z M 85.09375 -153.578125 "/></g></g><g transform="translate(257.952224, 325.054894)"><g><path d="M 24.9375 -28.109375 C 24.9375 -37.210938 28.003906 -44.597656 34.140625 -50.265625 C 40.273438 -55.941406 47.957031 -58.78125 57.1875 -58.78125 C 66.5625 -58.78125 74.316406 -55.941406 80.453125 -50.265625 C 86.585938 -44.597656 89.65625 -37.210938 89.65625 -28.109375 C 89.65625 -19.128906 86.617188 -11.835938 80.546875 -6.234375 C 74.472656 -0.628906 66.6875 2.171875 57.1875 2.171875 C 47.820312 2.171875 40.101562 -0.628906 34.03125 -6.234375 C 27.96875 -11.835938 24.9375 -19.128906 24.9375 -28.109375 Z M 24.9375 -28.109375 "/></g></g></g></svg>